# xmcd
#
# Track frame offsets:
# 150
# 10820
# 23380
# 38900
# 50500
# 66735
# 78198
# 90330
# 100668
# 113043
# 124760
# 143870
# 156503
# 168310
# 180535
# 192908
# 207093
# 218575
# 229308
# 239053
#
# Disc length: 3488 seconds
#
#
# Revision: 0
# Processed by: cddbd v1.5PL3 Copyright (c) Steve Scherf et al.
# Submitted via: FreeRIP 2.60 
#
DISCID=0b0d9e14
DTITLE=Kendra Ward/Bob Bence - Way Down Yonder
DYEAR=1990
DGENRE=Instrumental
TTITLE0=Under the Double Eagle
TTITLE1=Old Spinning Wheel
TTITLE2=Old Rugged Cross
TTITLE3=Chicken Reel
TTITLE4=Wings of a Dove
TTITLE5=Birdie
TTITLE6=Lillie's Lullaby
TTITLE7=Foggy Mountain Breakdown
TTITLE8=Duelling Banjos
TTITLE9=Beautiful Bluebird
TTITLE10=Raggedy Ann/Blackberry Blossom
TTITLE11=Wreck of the Old '97
TTITLE12=The Two of Us Waltz
TTITLE13=Down Yonder
TTITLE14=Liberty
TTITLE15=Redwing
TTITLE16=Flop-earred Mule
TTITLE17=Wildwood Flower
TTITLE18=Goin' Down Upcreek
TTITLE19=Orange Blossom Special
EXTD=Hammered Dulcimer and Guitar
EXTT0=
EXTT1=
EXTT2=
EXTT3=
EXTT4=
EXTT5=
EXTT6=
EXTT7=
EXTT8=
EXTT9=
EXTT10=
EXTT11=
EXTT12=
EXTT13=
EXTT14=
EXTT15=
EXTT16=
EXTT17=
EXTT18=
EXTT19=
PLAYORDER=
